<svg width="372" height="248" viewBox="0 0 372 248" fill="none" xmlns="http://www.w3.org/2000/svg">
<g opacity="0.2">
<mask id="mask0_325_1017" style="mask-type:luminance" maskUnits="userSpaceOnUse" x="0" y="0" width="372" height="248">
<path d="M372 0H0V247.42H372V0Z" fill="white"/>
</mask>
<g mask="url(#mask0_325_1017)">
<path d="M51.5222 237.987V184.266L2.57324 211.111V211.142L51.5222 237.987Z" fill="url(#paint0_linear_325_1017)"/>
<path d="M61.4115 33.5874L-0.681519 67.7004L61.4115 101.813H61.4425V33.6183L61.4115 33.5874Z" fill="#1A5D7D"/>
<path opacity="0.5" d="M-0.681519 135.895L10.7265 129.648L61.4115 101.813L-0.681519 67.7002V135.895Z" fill="url(#paint1_linear_325_1017)"/>
<path opacity="0.5" d="M185.659 -34.6079L123.535 -0.494934L185.659 33.5871V-34.6079Z" fill="url(#paint2_linear_325_1017)"/>
<path d="M123.535 67.7004L185.659 33.5874L123.535 -0.494629V67.7004Z" fill="#40A1BC"/>
<path d="M123.535 -0.494629L61.4424 33.5874V33.6183L123.535 67.7004V-0.494629Z" fill="#649A98"/>
<path d="M247.814 -0.896973L185.69 33.1851L247.814 67.2981V-0.896973Z" fill="#649A98"/>
<path d="M309.876 33.5874L247.783 -0.494629V67.7004L309.876 33.5874Z" fill="#9FC6C5"/>
<path opacity="0.3" d="M247.783 -0.494934L309.876 33.5871V-34.6079L247.783 -0.494934Z" fill="url(#paint3_linear_325_1017)"/>
<path d="M372 -0.494934L309.876 -34.6079V33.5871L372 -0.494934Z" fill="#2A3538"/>
<path d="M61.4425 33.5871V-34.6079H61.4115L-0.681519 -0.494934L61.4115 33.5871H61.4425Z" fill="#649A98"/>
<path d="M123.535 -0.494919V-68.6899L61.4424 -34.6079V33.5871L123.535 -0.494919Z" fill="#9FC6C5"/>
<path d="M247.783 -68.6899L185.659 -34.6079V33.5871L247.783 -0.494919V-68.6899Z" fill="#2A3538"/>
<path d="M247.783 67.7004L309.876 101.813V33.5874L247.783 67.7004Z" fill="#1A5D7D"/>
<path d="M16.6475 145.421L-0.681519 135.895V204.09L61.4115 170.008L16.6475 145.421Z" fill="#1A5D7D"/>
<path opacity="0.5" d="M61.4111 170.008H61.4421L123.535 135.895L61.4421 101.813H61.4111L10.7261 129.648L-0.681915 135.895V67.7001L61.4111 33.5871L-0.681915 -0.494934L-62.8059 -34.6079V33.5871V33.618L-0.681915 67.7001L-62.8059 101.813L-0.681915 135.895H-0.712914H-0.681915L16.6471 145.421L61.4111 170.008Z" fill="url(#paint4_linear_325_1017)"/>
<path d="M61.4424 101.813L123.535 135.895V67.7002L61.4424 101.813Z" fill="white"/>
<path d="M61.4442 33.5874H61.4113L61.4442 33.6203V33.5874Z" fill="#0E1E23"/>
<path d="M189.379 139.483L210.955 127.606L189.379 115.761V139.483Z" fill="#2A3538"/>
<path d="M56.7921 207.957L78.3681 196.111L56.7921 184.266V207.957Z" fill="#649A98"/>
<path d="M316.913 102.556L350.827 83.9372L316.913 65.3188V102.556Z" fill="#40A1BC"/>
<path d="M185.659 101.813V33.6183V33.5874L123.535 67.7004L185.659 101.813Z" fill="#1A5D7D"/>
<path d="M247.783 67.7004L185.659 33.5874V101.782L247.783 67.7004Z" fill="white"/>
<path d="M247.783 67.7002V67.7311L309.876 101.813V33.6182L247.783 67.7002Z" fill="url(#paint5_linear_325_1017)"/>
<path d="M61.4424 169.977L72.8504 163.73L123.535 135.895L61.4424 101.782V169.977Z" fill="#40A1BC"/>
<path d="M61.535 101.349L72.943 95.071L123.628 67.2673L61.535 33.1543V101.349Z" fill="#2A3538"/>
<path d="M0 135.617L11.408 129.37L62.124 101.535L0 67.4219V135.617Z" fill="#649A98"/>
<path d="M186.279 112.298L149.017 91.8237V132.772L186.279 112.298Z" fill="#649A98"/>
</g>
</g>
<defs>
<linearGradient id="paint0_linear_325_1017" x1="2.58546" y1="211.124" x2="89.0008" y2="211.124" gradientUnits="userSpaceOnUse">
<stop offset="0.3892" stop-color="#1A5D7D"/>
<stop offset="0.5022" stop-color="#1A5B7A"/>
<stop offset="0.5896" stop-color="#1B5470"/>
<stop offset="0.6685" stop-color="#1D4960"/>
<stop offset="0.7424" stop-color="#1F3A48"/>
<stop offset="0.8121" stop-color="#22262B"/>
<stop offset="0.8334" stop-color="#231F20"/>
</linearGradient>
<linearGradient id="paint1_linear_325_1017" x1="55.1316" y1="50.2851" x2="-3.08196" y2="131.714" gradientUnits="userSpaceOnUse">
<stop offset="0.3731" stop-color="#0E1E23"/>
<stop offset="0.3974" stop-color="#39464A"/>
<stop offset="0.4249" stop-color="#626D70"/>
<stop offset="0.4559" stop-color="#889092"/>
<stop offset="0.4896" stop-color="#A8AEB0"/>
<stop offset="0.5268" stop-color="#C4C8C9"/>
<stop offset="0.5688" stop-color="#DADCDD"/>
<stop offset="0.6179" stop-color="#EBECEC"/>
<stop offset="0.6786" stop-color="#F6F7F7"/>
<stop offset="0.7637" stop-color="#FDFDFD"/>
<stop offset="1" stop-color="white"/>
</linearGradient>
<linearGradient id="paint2_linear_325_1017" x1="141.249" y1="40.5258" x2="173.894" y2="-18.3747" gradientUnits="userSpaceOnUse">
<stop offset="0.3731" stop-color="#0E1E23"/>
<stop offset="0.3974" stop-color="#39464A"/>
<stop offset="0.4249" stop-color="#626D70"/>
<stop offset="0.4559" stop-color="#889092"/>
<stop offset="0.4896" stop-color="#A8AEB0"/>
<stop offset="0.5268" stop-color="#C4C8C9"/>
<stop offset="0.5688" stop-color="#DADCDD"/>
<stop offset="0.6179" stop-color="#EBECEC"/>
<stop offset="0.6786" stop-color="#F6F7F7"/>
<stop offset="0.7637" stop-color="#FDFDFD"/>
<stop offset="1" stop-color="white"/>
</linearGradient>
<linearGradient id="paint3_linear_325_1017" x1="319.993" y1="-24.5196" x2="271.958" y2="23.6284" gradientUnits="userSpaceOnUse">
<stop offset="0.4048" stop-color="white"/>
<stop offset="0.5619" stop-color="#FDFDFD"/>
<stop offset="0.6463" stop-color="#F5F5F5"/>
<stop offset="0.7135" stop-color="#E7E7E7"/>
<stop offset="0.7716" stop-color="#D4D4D4"/>
<stop offset="0.8239" stop-color="#BBBBBB"/>
<stop offset="0.8719" stop-color="#9C9C9C"/>
<stop offset="0.9168" stop-color="#787877"/>
<stop offset="0.9584" stop-color="#4E4E4D"/>
<stop offset="0.9973" stop-color="#20201F"/>
<stop offset="1" stop-color="#1C1C1B"/>
</linearGradient>
<linearGradient id="paint4_linear_325_1017" x1="-26.2663" y1="143.78" x2="-4.22679" y2="107.37" gradientUnits="userSpaceOnUse">
<stop offset="0.3731" stop-color="#0E1E23"/>
<stop offset="0.3974" stop-color="#39464A"/>
<stop offset="0.4249" stop-color="#626D70"/>
<stop offset="0.4559" stop-color="#889092"/>
<stop offset="0.4896" stop-color="#A8AEB0"/>
<stop offset="0.5268" stop-color="#C4C8C9"/>
<stop offset="0.5688" stop-color="#DADCDD"/>
<stop offset="0.6179" stop-color="#EBECEC"/>
<stop offset="0.6786" stop-color="#F6F7F7"/>
<stop offset="0.7637" stop-color="#FDFDFD"/>
<stop offset="1" stop-color="white"/>
</linearGradient>
<linearGradient id="paint5_linear_325_1017" x1="328.689" y1="67.7087" x2="266.575" y2="67.7087" gradientUnits="userSpaceOnUse">
<stop offset="0.1666" stop-color="#231F20"/>
<stop offset="0.1879" stop-color="#22262B"/>
<stop offset="0.2576" stop-color="#1F3A48"/>
<stop offset="0.3315" stop-color="#1D4960"/>
<stop offset="0.4104" stop-color="#1B5470"/>
<stop offset="0.4978" stop-color="#1A5B7A"/>
<stop offset="0.6108" stop-color="#1A5D7D"/>
</linearGradient>
</defs>
</svg>
