<svg width="18" height="20" viewBox="0 0 18 20" fill="none" xmlns="http://www.w3.org/2000/svg">
<path d="M9.81602 18.6077C13.851 16.5502 17.0001 13.1429 17.0001 9C17.0001 4.58172 13.4184 1 9.00012 1C4.58184 1 1.00012 4.58172 1.00012 9C1.00012 13.1429 4.14921 16.5502 8.18422 18.6077C8.69692 18.8691 9.30332 18.8691 9.81602 18.6077Z" stroke="white" stroke-width="1.5" stroke-linecap="round" stroke-linejoin="round"/>
<path d="M12.0001 9C12.0001 10.6569 10.657 12 9.00012 12C7.34322 12 6.00012 10.6569 6.00012 9C6.00012 7.34315 7.34322 6 9.00012 6C10.657 6 12.0001 7.34315 12.0001 9Z" stroke="white" stroke-width="1.5" stroke-linecap="round" stroke-linejoin="round"/>
</svg>
