<svg width="17" height="16" viewBox="0 0 17 16" fill="none" xmlns="http://www.w3.org/2000/svg">
<path d="M3.59898 16H0.277979V5.31698H3.59498L3.59898 16ZM1.93898 3.85998C1.55727 3.86176 1.1836 3.7503 0.865232 3.53971C0.546863 3.32912 0.29809 3.02885 0.150373 2.67688C0.00265539 2.3249 -0.0373724 1.93703 0.0353511 1.5623C0.108075 1.18758 0.290283 0.842833 0.558936 0.571663C0.827588 0.300494 1.17062 0.115078 1.54465 0.0388626C1.91868 -0.0373525 2.30691 -0.000943825 2.66025 0.143485C3.01358 0.287913 3.31616 0.533875 3.52971 0.850266C3.74326 1.16666 3.8582 1.53927 3.85998 1.92098C3.86053 2.43229 3.65888 2.92308 3.29902 3.28631C2.93916 3.64954 2.45027 3.85576 1.93898 3.85998ZM16.014 16H12.704V10.8C12.704 9.56098 12.679 7.97098 10.979 7.97098C9.25398 7.97098 8.98998 9.31698 8.98998 10.71V16H5.67798V5.31698H8.85798V6.77498H8.90398C9.22219 6.23036 9.6822 5.78229 10.235 5.4785C10.7878 5.17472 11.4126 5.02662 12.043 5.04998C15.4 5.04998 16.017 7.26098 16.017 10.132V16H16.014Z" fill="white"/>
</svg>
