<svg width="16" height="12" viewBox="0 0 16 12" fill="none" xmlns="http://www.w3.org/2000/svg">
<path d="M16 1.846C16 2.2111 15.8917 2.56801 15.6889 2.87158C15.4861 3.17516 15.1978 3.41176 14.8604 3.55148C14.5231 3.6912 14.152 3.72776 13.7939 3.65653C13.4358 3.5853 13.1069 3.40949 12.8487 3.15132C12.5905 2.89315 12.4147 2.56423 12.3435 2.20614C12.2723 1.84805 12.3088 1.47688 12.4485 1.13957C12.5883 0.802254 12.8249 0.513948 13.1284 0.311107C13.432 0.108266 13.7889 0 14.154 0C14.6436 0 15.1131 0.194489 15.4593 0.540681C15.8055 0.886873 16 1.35641 16 1.846Z" fill="white"/>
<path d="M14.154 4.40379C13.9518 4.4032 13.7504 4.3787 13.554 4.33079L11.731 6.18879C11.7236 6.19571 11.7177 6.20407 11.7137 6.21336C11.7097 6.22265 11.7076 6.23266 11.7076 6.24279C11.7076 6.25291 11.7097 6.26292 11.7137 6.27221C11.7177 6.2815 11.7236 6.28986 11.731 6.29679L14.625 9.38079C14.6716 9.42723 14.7085 9.48241 14.7337 9.54315C14.7589 9.6039 14.7719 9.66902 14.7719 9.73479C14.7719 9.80055 14.7589 9.86567 14.7337 9.92642C14.7085 9.98716 14.6716 10.0423 14.625 10.0888C14.5786 10.1354 14.5234 10.1723 14.4626 10.1975C14.4019 10.2227 14.3368 10.2357 14.271 10.2357C14.2052 10.2357 14.1401 10.2227 14.0794 10.1975C14.0186 10.1723 13.9635 10.1354 13.917 10.0888L11.035 7.01479C11.0277 7.00741 11.0189 7.00155 11.0093 6.99756C10.9997 6.99356 10.9894 6.99151 10.979 6.99151C10.9686 6.99151 10.9583 6.99356 10.9487 6.99756C10.9391 7.00155 10.9304 7.00741 10.923 7.01479L10.223 7.72979C9.93517 8.02372 9.59169 8.25741 9.21261 8.41725C8.83353 8.57709 8.42642 8.65988 8.01502 8.66079C7.59446 8.65918 7.17845 8.57362 6.7914 8.40911C6.40434 8.2446 6.05404 8.00447 5.76102 7.70279L5.08402 7.01479C5.07667 7.00741 5.06795 7.00155 5.05834 6.99756C5.04873 6.99356 5.03842 6.99151 5.02802 6.99151C5.01761 6.99151 5.0073 6.99356 4.99769 6.99756C4.98808 7.00155 4.97936 7.00741 4.97202 7.01479L2.08502 10.0878C2.03857 10.1343 1.98339 10.1713 1.92265 10.1965C1.8619 10.2217 1.79678 10.2347 1.73102 10.2347C1.66525 10.2347 1.60013 10.2217 1.53938 10.1965C1.47864 10.1713 1.42346 10.1343 1.37702 10.0878C1.33045 10.0413 1.29351 9.98617 1.2683 9.92542C1.2431 9.86468 1.23012 9.79955 1.23012 9.73379C1.23012 9.66802 1.2431 9.6029 1.2683 9.54215C1.29351 9.48141 1.33045 9.42623 1.37702 9.37979L4.27702 6.29479C4.2901 6.27984 4.29731 6.26065 4.29731 6.24079C4.29731 6.22092 4.2901 6.20173 4.27702 6.18679L0.131016 1.97279C0.120446 1.9617 0.106772 1.95406 0.0917851 1.95088C0.0767987 1.94769 0.0612005 1.94912 0.0470361 1.95495C0.0328718 1.96079 0.0208026 1.97078 0.0124118 1.9836C0.00402098 1.99641 -0.000299717 2.01147 1.61626e-05 2.02679V10.4618C0.000808326 10.788 0.130757 11.1007 0.361443 11.3314C0.592129 11.562 0.904778 11.692 1.23102 11.6928H14.769C15.0953 11.692 15.4079 11.562 15.6386 11.3314C15.8693 11.1007 15.9992 10.788 16 10.4618V3.61479C15.7616 3.86427 15.4751 4.06282 15.1579 4.19843C14.8406 4.33404 14.4991 4.4039 14.154 4.40379Z" fill="white"/>
<path d="M11.597 1.84527C11.5967 1.41496 11.7051 0.991544 11.912 0.614268H1.22703C0.949566 0.613143 0.680289 0.708203 0.465027 0.883268L6.50003 7.02527C6.69624 7.22506 6.9303 7.38376 7.18853 7.4921C7.44676 7.60043 7.72399 7.65623 8.00403 7.65623C8.28406 7.65623 8.56129 7.60043 8.81952 7.4921C9.07775 7.38376 9.31181 7.22506 9.50803 7.02527L12.608 3.87527C12.294 3.63809 12.0393 3.33133 11.8639 2.9791C11.6885 2.62687 11.5971 2.23876 11.597 1.84527Z" fill="white"/>
</svg>
