<svg width="20" height="16" viewBox="0 0 20 16" fill="none" xmlns="http://www.w3.org/2000/svg">
<path d="M9.4 4.2567L9.442 4.9487L8.742 4.8637C6.21894 4.5464 3.87489 3.39303 2.084 1.5877L1.161 0.669697L0.923 1.3477C0.66677 2.05662 0.612148 2.82271 0.765206 3.56081C0.918264 4.29892 1.27301 4.98012 1.79 5.5287C2.35 6.1217 2.224 6.2067 1.258 5.8537C1.05157 5.75786 0.827538 5.70577 0.6 5.7007C0.641833 6.35823 0.811679 7.00127 1.1 7.5937C1.54663 8.37383 2.21583 9.00298 3.022 9.4007L3.707 9.7257L2.9 9.7367C2.117 9.7367 2.089 9.7507 2.173 10.0477C2.41888 10.5978 2.77948 11.0891 3.23064 11.4885C3.68181 11.8879 4.21313 12.1863 4.789 12.3637L5.656 12.6637L4.901 13.1157C3.75843 13.7722 2.46941 14.1315 1.152 14.1607C0.764744 14.1433 0.376961 14.1803 0 14.2707C0.837427 14.8093 1.74629 15.2277 2.7 15.5137C4.22146 15.9646 5.81815 16.1045 7.39483 15.9249C8.97151 15.7454 10.4959 15.2501 11.877 14.4687C13.9421 13.1479 15.5647 11.2394 16.536 8.9887C17.0629 7.63181 17.3835 6.20361 17.487 4.7517C17.487 4.1017 17.529 4.0177 18.312 3.2407C18.6666 2.90486 18.994 2.54138 19.291 2.1537C19.431 1.8857 19.417 1.8857 18.703 2.1257C17.514 2.5497 17.346 2.4927 17.934 1.8577C18.3585 1.42936 18.6836 0.912797 18.886 0.344697C18.886 0.302697 18.676 0.372697 18.438 0.499697C18.042 0.694226 17.6302 0.854802 17.207 0.979697L16.452 1.2197L15.766 0.754697C15.3956 0.501225 14.9965 0.292442 14.577 0.132697C13.77 -0.0615492 12.9263 -0.042249 12.129 0.188697C11.2917 0.47484 10.5714 1.02769 10.0785 1.76248C9.58554 2.49727 9.3472 3.37346 9.4 4.2567Z" fill="white"/>
</svg>
