<svg width="884" height="851" viewBox="0 0 884 851" fill="none" xmlns="http://www.w3.org/2000/svg">
<g style="mix-blend-mode:luminosity" opacity="0.15">
<path d="M173.092 320.55C173.547 169.464 173.774 93.9204 220.875 47.1822C267.976 0.443987 343.518 0.801099 494.604 1.51532L883.065 3.3517L879.807 850.404L171.51 847.104L173.092 320.55Z" fill="url(#paint0_linear_402_931)"/>
</g>
<path d="M0.0936454 658.261C1.74738 670.493 72.3987 721.905 86.2717 732.225C97.4804 740.443 107.127 744.266 124.032 750.86C162.343 761.371 402.962 836.004 402.962 836.004C403.605 833.424 403.973 831.226 405.351 828.359C414.354 832.086 423.542 834.475 429.422 836.386C438.426 839.253 509.444 841.642 524.052 844.509C538.568 847.376 567.693 852.058 579.452 840.4C591.212 828.742 572.194 803.705 555.933 797.302C539.671 790.9 480.32 789.179 469.755 787.937C459.097 786.79 445.132 782.681 438.426 785.07C436.312 785.835 426.941 782.968 415.089 778.668C415.365 774.176 415.457 771.31 415.457 771.31L352.248 752.389L363.916 635.996C363.916 635.996 336.445 528.299 226.656 610.481C226.656 610.481 202.125 617.935 193.765 620.324C193.213 620.515 192.203 620.515 190.916 620.419C174.195 619.081 102.166 596.433 76.1655 596.433C48.1439 596.433 39.2322 594.713 29.126 599.969C19.1117 605.225 -1.56009 646.03 0.0936454 658.261Z" fill="#021032"/>
<path d="M112.547 840.496C124.307 852.155 153.431 847.472 167.947 844.606C182.464 841.739 253.574 839.35 262.578 836.483C271.582 833.616 288.303 829.507 300.063 821.384C300.981 820.715 303.186 819.76 306.31 818.517L324.134 831.896L571.367 750C586.159 745.796 597.919 739.393 605.728 732.322C618.59 720.663 690.252 670.589 691.906 658.358C693.56 646.126 672.888 605.321 662.782 600.161C652.676 594.905 643.764 596.625 615.742 596.625C587.721 596.625 506.596 622.809 498.143 620.516C494.285 619.464 486.383 615.26 478.942 611.055C469.938 605.99 461.577 600.734 461.577 600.734C341.314 544.927 327.992 636.283 327.992 636.283L335.067 749.045C335.067 749.045 325.052 754.205 312.006 760.703L252.38 778.191L260.189 784.02C256.79 785.167 254.401 785.645 253.482 785.358C246.776 783.064 232.811 787.078 222.153 788.225C211.496 789.371 152.145 791.091 135.975 797.59C119.897 803.801 100.879 828.838 112.547 840.496Z" fill="#021032"/>
<path d="M479.125 610.865C470.856 611.439 414.813 645.267 401.491 653.294C421.704 642.305 498.327 620.326 498.327 620.326C494.56 619.275 486.659 615.165 479.125 610.865Z" fill="#323657"/>
<path d="M191.009 620.421C191.009 620.421 287.569 644.789 305.209 655.014C304.382 654.44 254.311 614.878 228.035 609.527C228.035 609.527 202.218 618.032 193.857 620.325C193.214 620.516 192.295 620.516 191.009 620.421Z" fill="#073236"/>
<path d="M112.547 840.496C124.307 852.154 153.431 847.472 167.947 844.605C182.464 841.738 253.574 839.349 262.578 836.482C265.15 835.622 268.366 834.667 271.949 833.616C280.769 830.94 291.702 827.117 300.063 821.384C300.981 820.715 303.186 819.759 306.31 818.517L261.567 784.975L260.281 784.02C256.882 785.166 254.493 785.644 253.574 785.357C246.867 783.064 232.903 787.077 222.245 788.224C211.588 789.371 152.237 791.091 136.067 797.589C119.897 803.801 100.879 828.837 112.547 840.496Z" fill="#EEA886"/>
<path d="M112.547 840.496C124.307 852.155 153.431 847.472 167.947 844.605C182.464 841.739 253.574 839.35 262.578 836.483C265.15 835.623 268.366 834.667 271.949 833.616C271.949 833.616 252.38 813.453 261.659 784.88L260.373 783.924C256.974 785.071 254.585 785.549 253.666 785.262C246.959 782.969 232.994 786.982 222.337 788.129C211.68 789.276 152.329 790.996 136.159 797.494C119.897 803.801 100.879 828.838 112.547 840.496Z" fill="#C5CDDB"/>
<path d="M454.596 636.569C454.505 636.856 454.505 637.143 454.688 637.238C455.789 638.098 455.606 637.716 454.596 636.569Z" fill="#E55353"/>
<path d="M131.013 500.395C131.932 498.388 182.922 414.964 196.795 376.931C210.576 338.898 243.835 321.41 259.545 315.963C265.149 314.052 275.072 310.612 285.637 307.076C304.564 300.673 325.235 293.793 325.235 293.793H390.558C390.558 293.793 413.159 301.724 437.23 310.421C459.372 318.543 482.708 327.335 490.609 331.444C507.054 339.949 534.617 400.917 540.221 407.893C545.825 414.868 588.914 497.911 595.07 529.828C599.939 554.578 458.545 627.204 454.686 636.474C450.184 631.313 429.604 610.768 429.604 610.768C429.604 610.768 436.219 606.468 445.499 600.065C407.646 601.881 315.037 598.441 301.807 599.205C299.143 599.301 296.203 599.301 293.263 599.014C289.129 602.072 262.669 626.44 262.669 626.44C262.669 626.44 197.346 598.249 167.303 566.619C124.49 521.992 126.328 510.334 131.013 500.395ZM502.369 555.629C516.333 538.142 535.627 527.63 530.758 519.794C525.888 512.054 484.821 438.281 484.821 438.281C484.821 438.281 463.506 486.826 457.534 512.054C451.562 537.282 452.022 548.845 454.594 556.681C456.891 563.752 458.637 568.53 460.658 589.458C477.471 577.608 496.029 563.656 502.369 555.629ZM213.608 547.316C219.12 553.814 240.803 568.148 260.372 579.997C261.842 565.95 264.139 543.78 264.323 535.753C264.69 523.712 259.821 489.119 253.849 475.932C247.877 462.744 243.743 426.622 243.743 426.622C243.743 426.622 194.314 496.477 186.413 503.835C178.696 511.289 195.049 525.337 213.608 547.316Z" fill="#BFDF7E"/>
<path d="M378.895 494.619H349.07V689.815H378.895V494.619Z" fill="#C5CDDB"/>
<path d="M227.451 474.576V666.03L349.15 689.733V494.619L231.209 471.582L227.451 474.576Z" fill="#C5CDDB"/>
<path d="M227.451 676.675L349.15 701.21V499.193L227.451 474.575V676.675Z" fill="#45AAB4"/>
<path d="M378.895 499.193H349.07V701.21H378.895V499.193Z" fill="#021032"/>
<path d="M366.501 496.032L464.212 452.618L470.609 454.78L373.058 498.527L366.501 496.032Z" fill="#C5CDDB"/>
<path d="M470.609 454.781V478.234L378.895 495.866L470.609 454.781Z" fill="#BDABA6"/>
<path d="M500.594 474.576V666.03L378.895 689.733V494.619L496.916 471.582L500.594 474.576Z" fill="#C5CDDB"/>
<path d="M500.594 676.675L378.895 701.21V499.193L500.594 474.575V676.675Z" fill="#45AAB4"/>
<path d="M467.411 593.257L416.796 603.82V554.334L467.411 543.772V593.257Z" fill="#021032"/>
<path d="M240.164 473.328C240.164 473.328 287.901 457.193 359.305 494.536L346.511 497.28L240.164 473.328Z" fill="#C5CDDB"/>
<path opacity="0.2" d="M425.195 719.515C425.195 719.515 503.38 670.78 537.557 663.135C569.805 655.872 581.565 643.354 581.565 643.354C581.565 643.354 530.207 643.354 496.121 668.582C472.877 685.591 425.195 719.515 425.195 719.515Z" fill="#276C71"/>
<g opacity="0.2">
<path d="M355.737 753.441C355.737 753.441 219.764 679.19 164.18 663.04C132.391 653.771 120.172 643.259 120.172 643.259C120.172 643.259 204.237 651.764 255.411 683.873C279.757 699.067 355.737 753.441 355.737 753.441Z" fill="#276C71"/>
</g>
<path d="M405.443 828.36C414.446 832.087 423.634 834.476 429.514 836.387C438.517 839.254 509.536 841.643 524.144 844.51C538.66 847.377 567.784 852.059 579.544 840.401C591.304 828.742 572.286 803.705 556.024 797.303C539.763 790.9 480.412 789.18 469.846 787.938C459.189 786.791 445.224 782.682 438.517 785.071C436.404 785.835 427.033 782.969 415.181 778.668C414.722 786.122 405.443 828.36 405.443 828.36Z" fill="#EEA886"/>
<path d="M355.737 821.288L222.06 780.102L248.52 771.692C248.428 771.788 355.278 812.019 355.737 821.288Z" fill="#0D3E42"/>
<path d="M355.738 821.288L293.171 801.507L336.536 827.691L355.738 821.288Z" fill="#073236"/>
<path d="M398.737 655.013C398.829 654.918 399.839 654.344 401.585 653.293C400.391 653.866 399.472 654.44 398.737 655.013Z" fill="#525252"/>
<path d="M429.514 836.386C438.517 839.253 509.536 841.642 524.144 844.509C538.66 847.376 567.784 852.059 579.544 840.4C591.304 828.742 572.286 803.705 556.024 797.302C539.763 790.9 480.412 789.18 469.846 787.937C459.189 786.791 445.224 782.681 438.517 785.07C438.425 785.166 456.433 813.739 429.514 836.386Z" fill="#C5CDDB"/>
<path d="M324.5 294.08C324.5 293.984 324.5 293.889 324.592 293.889C327.807 286.531 326.246 250.409 326.246 250.409C326.246 250.409 391.293 233.208 389.455 246.395C387.618 259.582 395.059 295.513 395.059 295.513L428.41 307.363C428.41 307.363 392.854 406.65 351.97 393.845C311.086 381.04 295.651 303.732 295.651 303.732L324.5 294.08Z" fill="#EEA886"/>
<path d="M360.699 105.06C360.699 105.06 292.069 88.2413 299.143 176.922C306.401 266.844 322.112 277.356 343.978 278.885C371.448 280.892 399.654 268.373 415.364 198.805C430.432 132.486 402.686 104.964 360.699 105.06Z" fill="#EEA886"/>
<path d="M410.495 217.63C410.495 217.63 413.895 203.774 409.025 200.429C402.778 196.129 399.195 203.583 399.195 203.583L392.58 203.201C392.58 203.201 402.87 178.833 382.014 176.635C361.159 174.437 317.151 175.775 305.116 168.321C305.116 168.321 302.084 184.757 302.084 188.675C302.084 192.593 300.246 189.153 300.246 189.153C300.246 189.153 288.946 125.796 324.409 99.4217C359.781 73.0469 404.064 93.4013 413.619 116.909C423.174 140.513 427.676 164.403 410.495 217.63Z" fill="#292C47"/>
<path d="M422.072 170.137L493.275 137.551L354.085 59L236.302 121.497L298.869 156.185L422.072 170.137Z" fill="#292929"/>
<path d="M420.692 176.063C420.692 176.063 352.981 153.798 298.683 163.449L299.143 147.682C299.143 147.682 350.041 134.972 424.091 158.671L420.692 176.063Z" fill="#525252"/>
<path d="M440.602 144.62L443.91 144.625L443.761 230.916L440.454 230.911L440.602 144.62Z" fill="#292929"/>
<path d="M442.008 229.385C442.1 229.385 442.1 229.385 442.1 229.385C450.001 229.767 448.99 271.91 448.99 271.91H442.008H441.916H434.934C434.934 271.91 434.107 229.767 442.008 229.385Z" fill="#292929"/>
<path d="M394.968 295.418C394.968 295.418 390.098 338.325 353.716 332.305C317.334 326.284 324.5 293.985 324.5 293.985C324.5 293.985 285.821 306.886 270.846 312.141C270.846 312.141 301.44 446.404 377.42 429.012C453.4 411.62 428.961 307.554 428.961 307.554L394.968 295.418Z" fill="#BFDF7E"/>
<path d="M330.839 275.923C330.839 275.923 357.391 288.346 383.85 265.985C383.85 265.985 373.928 289.206 355.094 290.64C336.352 292.073 330.839 275.923 330.839 275.923Z" fill="#A77860"/>
<path d="M315.681 213.714C324.777 213.714 332.219 205.304 332.219 194.984C332.219 184.663 324.777 176.254 315.681 176.254C306.586 176.254 299.144 184.663 299.144 194.984C299.236 205.304 306.586 213.714 315.681 213.714ZM315.681 179.216C323.215 179.216 329.462 186.288 329.462 194.984C329.462 203.68 323.307 210.751 315.681 210.751C308.148 210.751 301.9 203.68 301.9 194.984C301.992 186.288 308.148 179.216 315.681 179.216Z" fill="#292929"/>
<path d="M362.72 217.823C371.816 217.823 379.257 209.414 379.257 199.093C379.257 188.773 371.816 180.363 362.72 180.363C353.625 180.363 346.183 188.773 346.183 199.093C346.183 209.414 353.625 217.823 362.72 217.823ZM362.72 183.326C370.254 183.326 376.501 190.397 376.501 199.093C376.501 207.789 370.346 214.861 362.72 214.861C355.095 214.861 348.939 207.789 348.939 199.093C349.031 190.397 355.186 183.326 362.72 183.326Z" fill="#292929"/>
<path d="M347.469 198.328L348.112 195.557C336.536 192.786 330.84 193.741 330.656 193.837L331.115 196.704C331.115 196.608 336.536 195.653 347.469 198.328Z" fill="#292929"/>
<path d="M412.124 187.342L412.896 190.094L378.234 200.605L377.462 197.853L412.124 187.342Z" fill="#292929"/>
<path d="M403.697 185.331C403.697 185.331 410.496 178.164 412.425 184.567C414.355 190.874 403.605 220.211 399.93 220.88C396.439 221.358 395.612 193.932 403.697 185.331Z" fill="#EEA886"/>
<defs>
<linearGradient id="paint0_linear_402_931" x1="731.561" y1="1.67585" x2="729.014" y2="848.781" gradientUnits="userSpaceOnUse">
<stop stop-color="white"/>
<stop offset="1" stop-color="#BFDF7E"/>
</linearGradient>
</defs>
</svg>
