<svg width="54" height="54" viewBox="0 0 54 54" fill="none" xmlns="http://www.w3.org/2000/svg">
<circle cx="27" cy="27" r="27" fill="#BFDF7E"/>
<path d="M35.187 18.144C33.1594 16.1164 30.4635 14.9999 27.5963 15C27.1264 15 26.7457 15.3808 26.7457 15.8506C26.7457 16.3203 27.1266 16.7012 27.5963 16.7012C30.0092 16.701 32.2778 17.6406 33.984 19.3469C35.6904 21.0532 36.63 23.3218 36.6299 25.7348C36.6299 26.2046 37.0106 26.5854 37.4805 26.5854C37.9502 26.5854 38.331 26.2046 38.331 25.735C38.3312 22.8674 37.2146 20.1715 35.187 18.144Z" fill="#021032" stroke="#084C50" stroke-width="0.5"/>
<path d="M31.688 25.7342C31.688 26.2039 32.0689 26.5848 32.5387 26.5846C33.0085 26.5846 33.3892 26.2038 33.3892 25.7341C33.389 22.5404 30.7903 19.9419 27.5964 19.9414C27.5963 19.9414 27.5965 19.9414 27.5964 19.9414C27.1267 19.9414 26.7458 20.3221 26.7457 20.7919C26.7457 21.2616 27.1264 21.6424 27.5962 21.6426C29.8523 21.6429 31.6878 23.4783 31.688 25.7342Z" fill="#021032"/>
<path d="M27.5964 19.9414C30.7903 19.9419 33.389 22.5404 33.3892 25.7341C33.3892 26.2038 33.0085 26.5846 32.5387 26.5846C32.0689 26.5848 31.688 26.2039 31.688 25.7342C31.6878 23.4783 29.8523 21.6429 27.5962 21.6426C27.1264 21.6424 26.7457 21.2616 26.7457 20.7919C26.7458 20.3221 27.1267 19.9414 27.5964 19.9414ZM27.5964 19.9414C27.5963 19.9414 27.5965 19.9414 27.5964 19.9414Z" stroke="#084C50" stroke-width="0.5"/>
<path d="M29.8058 30.0716C28.5093 30.0045 27.8488 30.9687 27.5321 31.4319C27.2668 31.8196 27.3661 32.3489 27.7539 32.6142C28.1416 32.8794 28.6709 32.7801 28.9362 32.3923C29.3104 31.8451 29.48 31.759 29.71 31.7699C30.4461 31.8565 33.3455 33.9811 33.6358 34.6454C33.7086 34.8411 33.7059 35.0329 33.6278 35.2661C33.3234 36.1696 32.8195 36.8044 32.1703 37.102C31.5536 37.3848 30.7975 37.3591 29.9842 37.0282C26.9474 35.7904 24.2943 34.0631 22.0987 31.894C22.0978 31.8931 22.0969 31.8923 22.0961 31.8914C19.9315 29.6979 18.2074 27.0482 16.9716 24.0161C16.6406 23.2021 16.615 22.4459 16.8977 21.8293C17.1953 21.1801 17.8302 20.6762 18.7328 20.3722C18.9669 20.2937 19.1583 20.2912 19.3521 20.3633C20.0189 20.6547 22.1434 23.5539 22.2291 24.2818C22.2414 24.5204 22.1546 24.6898 21.6079 25.0634C21.22 25.3283 21.1203 25.8576 21.3853 26.2455C21.6503 26.6333 22.1794 26.7329 22.5674 26.468C23.0308 26.1516 23.9948 25.4929 23.9279 24.192C23.8542 22.8331 21.2108 19.2345 19.9478 18.77C19.386 18.5607 18.7952 18.5571 18.1909 18.7598C16.8313 19.2177 15.8494 20.034 15.3513 21.1205C14.8682 22.1745 14.8835 23.3974 15.3961 24.6576C16.7186 27.9025 18.5689 30.7417 20.8955 33.0967C20.9012 33.1025 20.907 33.1082 20.9129 33.1137C23.2661 35.436 26.1021 37.2829 29.3427 38.6038C29.9916 38.8677 30.6307 38.9998 31.2418 38.9998C31.8173 38.9998 32.3682 38.8828 32.8792 38.6485C33.9658 38.1505 34.782 37.1687 35.2402 35.8082C35.4425 35.2051 35.4393 34.6145 35.2315 34.0554C34.7655 32.7889 31.1669 30.1456 29.8058 30.0716Z" fill="#021032" stroke="#084C50" stroke-width="0.5"/>
</svg>
