<svg width="26" height="33" viewBox="0 0 26 33" fill="none" xmlns="http://www.w3.org/2000/svg">
<path fill-rule="evenodd" clip-rule="evenodd" d="M15.3422 9.34637C15.3266 10.6694 14.2708 11.7304 12.9809 11.7198C11.6909 11.7091 10.6521 10.6307 10.6572 9.30758C10.6624 7.98448 11.7096 6.91465 12.9996 6.91455C13.6246 6.91819 14.2229 7.17649 14.6622 7.6326C15.1016 8.08871 15.3461 8.70521 15.3422 9.34637Z" fill="#2D352A" stroke="white" stroke-width="1.5" stroke-linecap="round" stroke-linejoin="round"/>
<path d="M8.76164 16.7123C9.4725 16.7123 10.0488 16.136 10.0488 15.4252C10.0488 14.7143 9.4725 14.138 8.76164 14.138V16.7123ZM2.9604 15.4252V14.138C2.30196 14.138 1.74969 14.6349 1.68041 15.2898L2.9604 15.4252ZM0.843778 23.1979C0.768987 23.9048 1.28144 24.5384 1.98835 24.6132C2.69527 24.688 3.32897 24.1756 3.40376 23.4687L0.843778 23.1979ZM7.92318 16.4154C8.46254 16.8786 9.27515 16.8166 9.73821 16.2772C10.2013 15.738 10.1395 14.9254 9.60007 14.4622L7.92318 16.4154ZM8.46378 15.1832L7.61046 16.147L7.62534 16.1597L8.46378 15.1832ZM8.46378 4.01085L7.63401 3.0269C7.62611 3.03356 7.61831 3.04032 7.61057 3.04715L8.46378 4.01085ZM17.5347 4.01085L18.3878 3.04715C18.3761 3.03682 18.3643 3.02668 18.3523 3.01676L17.5347 4.01085ZM17.5347 15.1832L18.3732 16.1599L18.3878 16.1468L17.5347 15.1832ZM16.3982 14.4622C15.859 14.9254 15.797 15.738 16.2602 16.2772C16.7233 16.8166 17.5359 16.8786 18.0753 16.4154L16.3982 14.4622ZM9.59539 14.4596C9.05462 13.9983 8.2422 14.0627 7.78079 14.6035C7.3194 15.1442 7.38374 15.9567 7.92452 16.418L9.59539 14.4596ZM10.0445 18.2268C10.5854 18.6883 11.3978 18.6239 11.8591 18.0832C12.3206 17.5424 12.2562 16.73 11.7155 16.2685L10.0445 18.2268ZM17.2385 14.1363C16.5276 14.1363 15.9513 14.7126 15.9513 15.4234C15.9513 16.1343 16.5276 16.7106 17.2385 16.7106V14.1363ZM23.0396 15.4234L24.3196 15.2877C24.2502 14.6331 23.698 14.1363 23.0396 14.1363V15.4234ZM22.5964 23.4534C22.6712 24.1603 23.305 24.6728 24.0119 24.5978C24.7187 24.5229 25.2312 23.8892 25.1562 23.1821L22.5964 23.4534ZM18.0782 16.3989C18.6169 15.9352 18.6776 15.1224 18.2139 14.5837C17.75 14.0449 16.9374 13.9842 16.3987 14.448L18.0782 16.3989ZM13 19.072L12.1605 20.0477C12.6432 20.463 13.3572 20.463 13.8397 20.0475L13 19.072ZM11.7196 16.2721C11.1807 15.8084 10.3681 15.8693 9.90435 16.4082C9.44068 16.9471 9.50162 17.7597 10.0404 18.2234L11.7196 16.2721ZM3.40376 23.4687C3.47869 22.7618 2.96632 22.1282 2.25942 22.0534C1.55251 21.9784 0.918689 22.491 0.843778 23.1979L3.40376 23.4687ZM1.28713 31.2277L0.0071774 31.0919C-0.0312992 31.4549 0.0861386 31.8172 0.33023 32.0885C0.574339 32.3599 0.922156 32.5148 1.28713 32.5148V31.2277ZM11.3268 32.5148C12.0376 32.5148 12.6139 31.9385 12.6139 31.2277C12.6139 30.5169 12.0376 29.9406 11.3268 29.9406V32.5148ZM1.38985 22.276C0.805868 22.6811 0.661057 23.4833 1.06638 24.0671C1.47171 24.6511 2.27371 24.796 2.85769 24.3906L1.38985 22.276ZM7.23663 21.3513C7.82061 20.9459 7.96544 20.144 7.56011 19.5599C7.15478 18.9761 6.35278 18.8313 5.7688 19.2366L7.23663 21.3513ZM11.614 18.3049C12.1981 17.8995 12.3427 17.0976 11.9372 16.5136C11.5318 15.9297 10.7299 15.785 10.1459 16.1904L11.614 18.3049ZM5.76861 19.2297C5.1847 19.6353 5.04003 20.4372 5.44546 21.0211C5.85089 21.6051 6.65291 21.7498 7.23682 21.3442L5.76861 19.2297ZM7.68045 19.7678C7.39364 19.1173 6.63386 18.8225 5.98343 19.1093C5.33298 19.396 5.03819 20.156 5.32498 20.8064L7.68045 19.7678ZM10.1489 31.747C10.4359 32.3974 11.1956 32.6923 11.8461 32.4053C12.4965 32.1186 12.7913 31.3588 12.5046 30.7084L10.1489 31.747ZM11.3268 29.9406C10.6159 29.9406 10.0396 30.5169 10.0396 31.2277C10.0396 31.9385 10.6159 32.5148 11.3268 32.5148V29.9406ZM16.3466 32.5148C17.0574 32.5148 17.6337 31.9385 17.6337 31.2277C17.6337 30.5169 17.0574 29.9406 16.3466 29.9406V32.5148ZM16.3466 29.9406C15.6357 29.9406 15.0594 30.5169 15.0594 31.2277C15.0594 31.9385 15.6357 32.5148 16.3466 32.5148V29.9406ZM24.7129 31.2277V32.5148C25.0779 32.5148 25.4256 32.3599 25.6698 32.0885C25.9139 31.8172 26.0313 31.4549 25.9928 31.0919L24.7129 31.2277ZM25.1562 23.1975C25.0814 22.4906 24.4476 21.9784 23.7407 22.0534C23.0338 22.1282 22.5214 22.762 22.5964 23.4689L25.1562 23.1975ZM15.4152 30.3392C14.9245 30.8537 14.9438 31.6684 15.4583 32.1591C15.9726 32.6497 16.7873 32.6305 17.2779 32.116L15.4152 30.3392ZM24.8076 24.2216C25.2983 23.7072 25.2791 22.8926 24.7646 22.4019C24.2502 21.9113 23.4356 21.9305 22.9449 22.4448L24.8076 24.2216ZM8.76164 14.138H2.9604V16.7123H8.76164V14.138ZM1.68041 15.2898L0.843778 23.1979L3.40376 23.4687L4.2404 15.5606L1.68041 15.2898ZM9.60007 14.4622L9.30223 14.2065L7.62534 16.1597L7.92318 16.4154L9.60007 14.4622ZM9.31701 14.2194C8.01416 13.066 7.25741 11.3798 7.25741 9.597H4.68315C4.68315 12.1047 5.74668 14.4969 7.61046 16.147L9.31701 14.2194ZM7.25741 9.597C7.25741 7.81419 8.01416 6.12805 9.31701 4.97455L7.61057 3.04715C5.74679 4.69729 4.68315 7.08931 4.68315 9.597H7.25741ZM9.29357 4.99482C10.8179 3.70937 12.0764 3.30839 13.1565 3.35759C14.2636 3.40805 15.4239 3.94154 16.7169 5.00495L18.3523 3.01676C16.8324 1.76678 15.1516 0.871559 13.2736 0.786008C11.3686 0.699204 9.49808 1.45492 7.63401 3.0269L9.29357 4.99482ZM16.6814 4.97455C17.9841 6.12805 18.741 7.81419 18.741 9.597H21.3152C21.3152 7.08931 20.2515 4.69729 18.3878 3.04715L16.6814 4.97455ZM18.741 9.597C18.741 11.3798 17.9841 13.066 16.6814 14.2194L18.3878 16.1468C20.2515 14.4967 21.3152 12.1047 21.3152 9.597H18.741ZM16.6961 14.2065L16.3982 14.4622L18.0753 16.4154L18.3732 16.1599L16.6961 14.2065ZM7.92452 16.418L10.0445 18.2268L11.7155 16.2685L9.59539 14.4596L7.92452 16.418ZM17.2385 16.7106H23.0396V14.1363H17.2385V16.7106ZM21.7597 15.559L22.5964 23.4534L25.1562 23.1821L24.3196 15.2877L21.7597 15.559ZM16.3987 14.448L12.1603 18.0966L13.8397 20.0475L18.0782 16.3989L16.3987 14.448ZM13.8396 18.0964L11.7196 16.2721L10.0404 18.2234L12.1605 20.0477L13.8396 18.0964ZM0.843778 23.1979L0.0071774 31.0919L2.56709 31.3633L3.40376 23.4687L0.843778 23.1979ZM1.28713 32.5148H11.3268V29.9406H1.28713V32.5148ZM2.85769 24.3906L7.23663 21.3513L5.7688 19.2366L1.38985 22.276L2.85769 24.3906ZM10.1459 16.1904L5.76861 19.2297L7.23682 21.3442L11.614 18.3049L10.1459 16.1904ZM5.32498 20.8064L10.1489 31.747L12.5046 30.7084L7.68045 19.7678L5.32498 20.8064ZM11.3268 32.5148H16.3466V29.9406H11.3268V32.5148ZM16.3466 32.5148H24.7129V29.9406H16.3466V32.5148ZM25.9928 31.0919L25.1562 23.1975L22.5964 23.4689L23.433 31.3633L25.9928 31.0919ZM17.2779 32.116L24.8076 24.2216L22.9449 22.4448L15.4152 30.3392L17.2779 32.116Z" fill="#2D352A"/>
</svg>
