<svg width="30" height="30" viewBox="0 0 30 30" fill="none" xmlns="http://www.w3.org/2000/svg">
<path d="M25.5112 4.35574C22.8201 1.66467 19.1026 0 14.996 0C6.78372 0 0.12505 6.65766 0.12505 14.8709C0.12505 17.604 0.862345 20.1641 2.14786 22.3649L2.10984 22.2949L0 30L7.88215 27.9322C9.93398 29.0716 12.382 29.7419 14.987 29.7419H14.993C23.2053 29.7389 29.8609 23.0802 29.8609 14.8679C29.8609 10.7633 28.1983 7.04782 25.5102 4.35674L25.5112 4.35574ZM14.993 27.2299H14.988C12.6681 27.2299 10.4962 26.5896 8.64246 25.4762L8.69848 25.5072L8.2473 25.2401L3.57043 26.4676L4.81793 21.9068L4.52381 21.4396C3.33834 19.5768 2.63405 17.3069 2.63405 14.8719C2.63405 8.04722 8.16727 2.51401 14.992 2.51401C21.8167 2.51401 27.3499 8.04722 27.3499 14.8719C27.3499 21.6967 21.8187 27.2299 14.993 27.2299ZM21.7717 17.9752C21.4006 17.7891 19.5738 16.8918 19.2337 16.7667C18.8926 16.6427 18.6445 16.5816 18.3964 16.9538C18.1503 17.3249 17.438 18.1613 17.2209 18.4094C17.0048 18.6585 16.7867 18.6885 16.4156 18.5034C15.2651 18.0372 14.2767 17.416 13.4174 16.6507L13.4274 16.6597C12.6281 15.9194 11.9428 15.072 11.3896 14.1377L11.3615 14.0856C11.1455 13.7145 11.3385 13.5134 11.5236 13.3283C11.6907 13.1623 11.8958 12.8942 12.0808 12.6781C12.2269 12.499 12.3519 12.2939 12.447 12.0738L12.453 12.0568C12.496 11.9698 12.521 11.8687 12.521 11.7607C12.521 11.6297 12.484 11.5076 12.42 11.4036L12.422 11.4066C12.3279 11.2205 11.5856 9.39176 11.2765 8.64746C10.9744 7.92317 10.6673 8.02221 10.4402 8.0102C10.2241 8.0002 9.97599 7.9982 9.72789 7.9982C9.33273 8.0082 8.98159 8.18627 8.7395 8.46138L8.7385 8.46339C7.93618 9.22469 7.43798 10.2981 7.43798 11.4876C7.43798 11.5136 7.43798 11.5406 7.43898 11.5666V11.5626C7.57003 13.0302 8.12025 14.3477 8.96659 15.4212L8.95458 15.4062C10.5592 17.7861 12.6981 19.6899 15.2081 20.9724L15.3021 21.0154C15.8503 21.2635 16.5526 21.5286 17.2709 21.7557L17.42 21.7967C17.8621 21.9368 18.3713 22.0178 18.8996 22.0178C19.2027 22.0178 19.5008 21.9908 19.7889 21.9398L19.7579 21.9438C20.8273 21.7207 21.7147 21.0754 22.2559 20.1941L22.2649 20.1771C22.43 19.8109 22.526 19.3838 22.526 18.9346C22.526 18.7495 22.51 18.5684 22.479 18.3924L22.482 18.4114C22.39 18.2563 22.1419 18.1643 21.7697 17.9772L21.7717 17.9752Z" fill="#2D352A"/>
</svg>
