<svg width="30" height="30" viewBox="0 0 30 30" fill="none" xmlns="http://www.w3.org/2000/svg">
<path d="M18.4059 21.2541L15.9907 23.6692L6.33064 14.0091L8.74576 11.594L3.31188 6.16016L1.50051 7.97141C-0.500238 9.97216 -0.500121 13.2159 1.50057 15.2167L14.7832 28.4994C16.784 30.5 20.0277 30.5 22.0285 28.4994L23.8397 26.6881L18.4059 21.2541Z" fill="#2D352A"/>
<path d="M17.1983 15.3633C18.613 15.3633 19.7598 14.2165 19.7598 12.8018C19.7598 11.3871 18.613 10.2402 17.1983 10.2402C15.7836 10.2402 14.6367 11.3871 14.6367 12.8018C14.6367 14.2165 15.7836 15.3633 17.1983 15.3633Z" fill="#2D352A"/>
<path d="M22.6319 7.36779C19.6356 4.37153 14.7604 4.37153 11.7642 7.36785L13.5754 9.1791C15.573 7.18152 18.8231 7.18152 20.8206 9.1791C22.8181 11.1765 22.8181 14.4267 20.8207 16.4242L22.6319 18.2355C25.6281 15.2392 25.628 10.364 22.6319 7.36779Z" fill="#2D352A"/>
<path d="M26.2545 3.74527C21.2608 -1.24845 13.1354 -1.24839 8.1416 3.74527L9.9528 5.55664C13.9478 1.56165 20.4481 1.56159 24.4431 5.55658C28.4381 9.55157 28.438 16.0519 24.4431 20.0469L26.2543 21.8582C31.2482 16.8644 31.2482 8.73899 26.2545 3.74527Z" fill="#2D352A"/>
</svg>
