<svg width="26" height="30" viewBox="0 0 26 30" fill="none" xmlns="http://www.w3.org/2000/svg">
<path d="M11.557 0.0514278C9.00804 0.375322 6.87691 1.39395 5.16355 3.10262C3.89613 4.37003 3.0418 5.82521 2.60994 7.45408C2.3189 8.53842 2.30951 8.66047 2.29074 11.2986L2.26727 13.7207L2.02787 13.7959C1.38946 13.9977 0.652485 14.6173 0.342672 15.2135C0.00469413 15.8613 0 15.9082 0 17.7718C0 19.4006 0.00469413 19.4476 0.107965 19.7433C0.286342 20.2362 0.483496 20.5413 0.891885 20.945C1.17353 21.2267 1.36599 21.3722 1.62417 21.4942C2.08889 21.7242 2.62402 21.8557 3.09813 21.8557H3.47835L3.63795 22.2171C4.02757 23.1231 4.58147 24.1417 5.14477 24.9914C6.94732 27.7093 9.13948 29.4179 11.4772 29.9155C11.7776 29.9765 12.0827 30 12.6976 30C13.5989 30 13.9791 29.9437 14.7396 29.6902C17.0444 28.9203 19.2741 26.8268 20.9358 23.8695C21.2363 23.3343 21.2879 23.2686 21.5836 23.0527C21.7573 22.9212 22.1094 22.6067 22.3582 22.3439L22.8182 21.8745L23.2125 21.7947C24.3672 21.5693 25.353 20.6821 25.6253 19.6213C25.7332 19.2035 25.7332 16.2837 25.63 15.8707C25.3765 14.8943 24.5503 14.0493 23.5646 13.7583L23.3768 13.702L23.3486 11.2188C23.3251 9.16743 23.3064 8.66516 23.2453 8.33188C22.851 6.33218 22.0061 4.67984 20.6542 3.2763C19.0112 1.56763 16.8942 0.478594 14.4579 0.0936756C13.8054 -0.00959587 12.2047 -0.0330658 11.557 0.0514278ZM13.721 2.09807C15.716 2.3187 17.5232 3.16833 18.8657 4.50616C19.2037 4.84414 19.7388 5.47785 19.7388 5.53887C19.7388 5.55765 19.6262 5.48723 19.4947 5.38866C18.6216 4.74556 17.4058 4.19635 16.1713 3.87715C14.58 3.46876 12.416 3.38896 10.6792 3.6706C8.82967 3.97103 7.45428 4.54841 5.83011 5.70786C5.7597 5.75949 5.77848 5.71255 5.89114 5.54826C6.37463 4.8723 7.11161 4.14002 7.8392 3.61897C8.36495 3.23874 9.41643 2.713 10.0689 2.49707C11.2284 2.11215 12.5615 1.96663 13.721 2.09807ZM9.31785 12.2984C11.2237 12.8289 13.336 12.8664 14.8851 12.397C15.2043 12.2984 15.3686 12.2796 15.8333 12.2796C16.805 12.2796 17.3824 12.4439 18.5512 13.0542C18.9267 13.2513 19.2459 13.3969 19.26 13.3875C19.2741 13.3734 19.2131 13.1762 19.1286 12.9509C19.0441 12.7209 18.9643 12.4768 18.9549 12.4064L18.9314 12.275L19.1098 12.3454C19.3304 12.4346 19.5323 12.6505 19.8562 13.1481C20.2927 13.8146 20.6495 14.6314 20.9781 15.7204L21.1471 16.279L21.1377 18.3492L21.1236 20.424L20.9452 20.4662C20.8185 20.4991 20.7387 20.4944 20.673 20.4568C20.626 20.424 20.5744 20.4005 20.565 20.4005C20.5556 20.4005 20.5087 20.5132 20.4664 20.6446C20.335 21.0389 19.997 21.8604 19.7858 22.2782L19.5933 22.6631L19.1521 22.8696C18.2367 23.3062 16.7862 23.7052 15.6315 23.846L15.1151 23.907L14.8522 23.6629C14.4673 23.3062 14.3594 23.2874 12.9558 23.2874C11.8292 23.2874 11.7729 23.2921 11.5429 23.3954C10.4726 23.8788 10.4585 25.381 11.5194 25.902C11.7259 26.0053 11.7776 26.01 13.0262 26.01H14.3171L14.5753 25.8645C14.7208 25.7847 14.9039 25.6298 14.9931 25.5077L15.1527 25.2965L15.6737 25.2401C16.2933 25.1697 17.4058 24.9538 17.9457 24.7989C18.1569 24.7332 18.3306 24.6909 18.3306 24.705C18.3306 24.7473 17.7814 25.3997 17.4387 25.7659C15.6784 27.6529 13.4158 28.4744 11.4208 27.9581C9.5995 27.4886 7.80165 25.9724 6.37933 23.7239C5.97563 23.0808 5.34192 21.79 5.06497 21.0342C4.93823 20.6962 4.83026 20.4146 4.82557 20.4052C4.81618 20.3911 4.78332 20.4099 4.75516 20.4381C4.7223 20.4709 4.65189 20.4944 4.59086 20.4944H4.4829V17.8281V15.1665L4.6378 14.7863C5.29968 13.1621 6.44035 12.2421 7.93309 12.1482C8.50108 12.1107 8.73578 12.1341 9.31785 12.2984Z" fill="#2D352A"/>
</svg>
